# xmcd
#
# Track frame offsets:
#	150
#	12332
#	23770
#	33747
#	46359
#	58509
#	69258
#	81882
#	95557
#	111442
#	123678
#	135678
#	147550
#	159406
#	173114
#	183934
#	194272
#	207297
#
# Disc length: 2944 seconds
#
# Revision: 0
# Processed by: cddbd v1.4PL0 Copyright (c) Steve Scherf et al.
# Submitted via: EasyCDDAExtractor 5.0.5.1
#
DISCID=030b7e12
DTITLE=Varoius Artists - Country Music - Hall Of Fame - CD 1
DYEAR=1900
DGENRE=Country
TTITLE0=Move It Over - Hank Williams
TTITLE1=Bouquet Of Roses - Eddy Arnold
TTITLE2=He'll Have A Go - Jim Reeves
TTITLE3=Waitin' For A Train - Jimmie Rodgers
TTITLE4=On The Old Spanish Trail - Roy Rodgers
TTITLE5=It's A Sin - Eddy Arnold
TTITLE6=What Is Life Without Love - Eddy Arnold
TTITLE7=How's The World Treating You - Jim Reeves
TTITLE8=Roll Along Kentucky Moon - Jimmie Rodgers
TTITLE9=I'll Hold My Heart - Eddy Arnold
TTITLE10=Lost Highway - Eddy Arnold
TTITLE11=Walkin' The Floor Over You - Hank Williams
TTITLE12=Dust - Ernest Tubb
TTITLE13=Mole Train - Tennessee Ernie Ford
TTITLE14=Humpty Dumpty Heart - Hank Thompson
TTITLE15=Bluegrass Breakdown - Bill Monroe
TTITLE16=My San Antonio Rose - Hank Snow
TTITLE17=Pistol Packin' Papa Jimmie Rodgers
EXTD=
EXTT0=
EXTT1=
EXTT2=
EXTT3=
EXTT4=
EXTT5=
EXTT6=
EXTT7=
EXTT8=
EXTT9=
EXTT10=
EXTT11=
EXTT12=
EXTT13=
EXTT14=
EXTT15=
EXTT16=
EXTT17=
PLAYORDER=
